M48
;DRILL file {KiCad (5.0.2)-1} date 5/18/2019 11:43:03 PM
;FORMAT={-:-/ absolute / metric / decimal}
FMAT,2
METRIC,TZ
T1C0.400
T2C1.000
T3C4.000
%
G90
G05
T1
X8.9Y-5.8
X8.9Y-15.8
X8.9Y-25.8
X8.9Y-35.8
X8.9Y-45.8
X8.9Y-55.8
X8.9Y-65.8
X8.9Y-75.8
X8.9Y-85.8
X8.9Y-95.8
X23.9Y-5.8
X23.9Y-15.8
X23.9Y-25.8
X23.9Y-35.8
X23.9Y-45.8
X23.9Y-55.8
X23.9Y-65.8
X23.9Y-75.8
X23.9Y-85.8
X23.9Y-95.8
X38.9Y-5.8
X38.9Y-15.8
X38.9Y-25.8
X38.9Y-35.8
X38.9Y-45.8
X38.9Y-55.8
X38.9Y-65.8
X38.9Y-75.8
X38.9Y-85.8
X38.9Y-95.8
X53.9Y-5.8
X53.9Y-15.8
X53.9Y-25.8
X53.9Y-35.8
X53.9Y-45.8
X53.9Y-55.8
X53.9Y-65.8
X53.9Y-75.8
X53.9Y-85.8
X53.9Y-95.8
X68.9Y-5.8
X68.9Y-15.8
X68.9Y-25.8
X68.9Y-35.8
X68.9Y-45.8
X68.9Y-55.8
X68.9Y-65.8
X68.9Y-75.8
X68.9Y-85.8
X68.9Y-95.8
X83.9Y-5.8
X83.9Y-15.8
X83.9Y-25.8
X83.9Y-35.8
X83.9Y-45.8
X83.9Y-55.8
X83.9Y-65.8
X83.9Y-75.8
X83.9Y-85.8
X83.9Y-95.8
T2
X78.4Y-22.46
X78.4Y-25.
X78.4Y-27.54
X93.4Y-52.46
X93.4Y-55.
X93.4Y-57.54
X93.4Y-92.46
X93.4Y-95.
X93.4Y-97.54
X63.4Y-82.46
X63.4Y-85.
X63.4Y-87.54
X18.4Y-62.46
X18.4Y-65.
X18.4Y-67.54
X18.4Y-82.46
X18.4Y-85.
X18.4Y-87.54
X18.4Y-52.46
X18.4Y-55.
X18.4Y-57.54
X66.6Y-12.46
X66.6Y-15.
X66.6Y-17.54
X21.6Y-22.46
X21.6Y-25.
X21.6Y-27.54
X51.6Y-32.46
X51.6Y-35.
X51.6Y-37.54
X51.6Y-72.46
X51.6Y-75.
X51.6Y-77.54
X51.6Y-42.46
X51.6Y-45.
X51.6Y-47.54
X21.6Y-92.46
X21.6Y-95.
X21.6Y-97.54
X21.6Y-82.46
X21.6Y-85.
X21.6Y-87.54
X66.6Y-52.46
X66.6Y-55.
X66.6Y-57.54
X93.4Y-22.46
X93.4Y-25.
X93.4Y-27.54
X48.4Y-12.46
X48.4Y-15.
X48.4Y-17.54
X48.4Y-32.46
X48.4Y-35.
X48.4Y-37.54
X33.4Y-82.46
X33.4Y-85.
X33.4Y-87.54
X78.4Y-82.46
X78.4Y-85.
X78.4Y-87.54
X33.4Y-62.46
X33.4Y-65.
X33.4Y-67.54
X48.4Y-92.46
X48.4Y-95.
X48.4Y-97.54
X78.4Y-62.46
X78.4Y-65.
X78.4Y-67.54
X81.6Y-2.46
X81.6Y-5.
X81.6Y-7.54
X36.6Y-22.46
X36.6Y-25.
X36.6Y-27.54
X66.6Y-32.46
X66.6Y-35.
X66.6Y-37.54
X36.6Y-72.46
X36.6Y-75.
X36.6Y-77.54
X6.6Y-52.46
X6.6Y-55.
X6.6Y-57.54
X81.6Y-52.46
X81.6Y-55.
X81.6Y-57.54
X66.6Y-92.46
X66.6Y-95.
X66.6Y-97.54
X78.4Y-12.46
X78.4Y-15.
X78.4Y-17.54
X21.6Y-72.46
X21.6Y-75.
X21.6Y-77.54
X18.4Y-32.46
X18.4Y-35.
X18.4Y-37.54
X36.6Y-82.46
X36.6Y-85.
X36.6Y-87.54
X93.4Y-12.46
X93.4Y-15.
X93.4Y-17.54
X33.4Y-42.46
X33.4Y-45.
X33.4Y-47.54
X18.4Y-92.46
X18.4Y-95.
X18.4Y-97.54
X48.4Y-62.46
X48.4Y-65.
X48.4Y-67.54
X93.4Y-82.46
X93.4Y-85.
X93.4Y-87.54
X63.4Y-62.46
X63.4Y-65.
X63.4Y-67.54
X6.6Y-12.46
X6.6Y-15.
X6.6Y-17.54
X51.6Y-22.46
X51.6Y-25.
X51.6Y-27.54
X6.6Y-42.46
X6.6Y-45.
X6.6Y-47.54
X66.6Y-72.46
X66.6Y-75.
X66.6Y-77.54
X81.6Y-82.46
X81.6Y-85.
X81.6Y-87.54
X36.6Y-62.46
X36.6Y-65.
X36.6Y-67.54
X6.6Y-92.46
X6.6Y-95.
X6.6Y-97.54
X78.4Y-2.46
X78.4Y-5.
X78.4Y-7.54
X81.6Y-32.46
X81.6Y-35.
X81.6Y-37.54
X63.4Y-2.46
X63.4Y-5.
X63.4Y-7.54
X81.6Y-92.46
X81.6Y-95.
X81.6Y-97.54
X18.4Y-22.46
X18.4Y-25.
X18.4Y-27.54
X63.4Y-32.46
X63.4Y-35.
X63.4Y-37.54
X33.4Y-52.46
X33.4Y-55.
X33.4Y-57.54
X6.6Y-2.46
X6.6Y-5.
X6.6Y-7.54
X18.4Y-72.46
X18.4Y-75.
X18.4Y-77.54
X18.4Y-2.46
X18.4Y-5.
X18.4Y-7.54
X93.4Y-62.46
X93.4Y-65.
X93.4Y-67.54
X48.4Y-82.46
X48.4Y-85.
X48.4Y-87.54
X36.6Y-2.46
X36.6Y-5.
X36.6Y-7.54
X51.6Y-12.46
X51.6Y-15.
X51.6Y-17.54
X66.6Y-22.46
X66.6Y-25.
X66.6Y-27.54
X21.6Y-42.46
X21.6Y-45.
X21.6Y-47.54
X21.6Y-52.46
X21.6Y-55.
X21.6Y-57.54
X33.4Y-12.46
X33.4Y-15.
X33.4Y-17.54
X66.6Y-82.46
X66.6Y-85.
X66.6Y-87.54
X63.4Y-12.46
X63.4Y-15.
X63.4Y-17.54
X51.6Y-92.46
X51.6Y-95.
X51.6Y-97.54
X33.4Y-22.46
X33.4Y-25.
X33.4Y-27.54
X18.4Y-42.46
X18.4Y-45.
X18.4Y-47.54
X48.4Y-52.46
X48.4Y-55.
X48.4Y-57.54
X21.6Y-2.46
X21.6Y-5.
X21.6Y-7.54
X78.4Y-92.46
X78.4Y-95.
X78.4Y-97.54
X93.4Y-72.46
X93.4Y-75.
X93.4Y-77.54
X51.6Y-2.46
X51.6Y-5.
X51.6Y-7.54
X21.6Y-12.46
X21.6Y-15.
X21.6Y-17.54
X81.6Y-22.46
X81.6Y-25.
X81.6Y-27.54
X33.4Y-2.46
X33.4Y-5.
X33.4Y-7.54
X36.6Y-42.46
X36.6Y-45.
X36.6Y-47.54
X6.6Y-62.46
X6.6Y-65.
X6.6Y-67.54
X81.6Y-72.46
X81.6Y-75.
X81.6Y-77.54
X36.6Y-92.46
X36.6Y-95.
X36.6Y-97.54
X33.4Y-32.46
X33.4Y-35.
X33.4Y-37.54
X51.6Y-82.46
X51.6Y-85.
X51.6Y-87.54
X93.4Y-2.46
X93.4Y-5.
X93.4Y-7.54
X48.4Y-22.46
X48.4Y-25.
X48.4Y-27.54
X63.4Y-42.46
X63.4Y-45.
X63.4Y-47.54
X63.4Y-52.46
X63.4Y-55.
X63.4Y-57.54
X33.4Y-72.46
X33.4Y-75.
X33.4Y-77.54
X63.4Y-92.46
X63.4Y-95.
X63.4Y-97.54
X48.4Y-72.46
X48.4Y-75.
X48.4Y-77.54
X48.4Y-42.46
X48.4Y-45.
X48.4Y-47.54
X66.6Y-2.46
X66.6Y-5.
X66.6Y-7.54
X81.6Y-12.46
X81.6Y-15.
X81.6Y-17.54
X6.6Y-32.46
X6.6Y-35.
X6.6Y-37.54
X81.6Y-42.46
X81.6Y-45.
X81.6Y-47.54
X36.6Y-52.46
X36.6Y-55.
X36.6Y-57.54
X66.6Y-62.46
X66.6Y-65.
X66.6Y-67.54
X6.6Y-82.46
X6.6Y-85.
X6.6Y-87.54
X78.4Y-32.46
X78.4Y-35.
X78.4Y-37.54
X66.6Y-42.46
X66.6Y-45.
X66.6Y-47.54
X18.4Y-12.46
X18.4Y-15.
X18.4Y-17.54
X63.4Y-22.46
X63.4Y-25.
X63.4Y-27.54
X93.4Y-42.46
X93.4Y-45.
X93.4Y-47.54
X78.4Y-52.46
X78.4Y-55.
X78.4Y-57.54
X78.4Y-72.46
X78.4Y-75.
X78.4Y-77.54
X33.4Y-92.46
X33.4Y-95.
X33.4Y-97.54
X63.4Y-72.46
X63.4Y-75.
X63.4Y-77.54
X78.4Y-42.46
X78.4Y-45.
X78.4Y-47.54
X36.6Y-12.46
X36.6Y-15.
X36.6Y-17.54
X6.6Y-22.46
X6.6Y-25.
X6.6Y-27.54
X36.6Y-32.46
X36.6Y-35.
X36.6Y-37.54
X6.6Y-72.46
X6.6Y-75.
X6.6Y-77.54
X51.6Y-62.46
X51.6Y-65.
X51.6Y-67.54
X51.6Y-52.46
X51.6Y-55.
X51.6Y-57.54
X81.6Y-62.46
X81.6Y-65.
X81.6Y-67.54
X21.6Y-32.46
X21.6Y-35.
X21.6Y-37.54
X48.4Y-2.46
X48.4Y-5.
X48.4Y-7.54
X21.6Y-62.46
X21.6Y-65.
X21.6Y-67.54
X93.4Y-32.46
X93.4Y-35.
X93.4Y-37.54
T3
X97.5Y-97.5
X2.5Y-97.5
X2.5Y-2.5
X97.5Y-2.5
T0
M30
