G04 #@! TF.GenerationSoftware,KiCad,Pcbnew,(5.0.2)-1*
G04 #@! TF.CreationDate,2019-05-18T23:42:59-05:00*
G04 #@! TF.ProjectId,pixel_panel,70697865-6c5f-4706-916e-656c2e6b6963,rev?*
G04 #@! TF.SameCoordinates,PX6aae0f0PY2fa8320*
G04 #@! TF.FileFunction,Profile,NP*
%FSLAX46Y46*%
G04 Gerber Fmt 4.6, Leading zero omitted, Abs format (unit mm)*
G04 Created by KiCad (PCBNEW (5.0.2)-1) date 5/18/2019 11:42:59 PM*
%MOMM*%
%LPD*%
G01*
G04 APERTURE LIST*
%ADD10C,0.200000*%
G04 APERTURE END LIST*
D10*
X95000000Y-105000000D02*
X95000000Y5000000D01*
X80000000Y-105000000D02*
X80000000Y5000000D01*
X65000000Y-105000000D02*
X65000000Y5000000D01*
X50000000Y-105000000D02*
X50000000Y5000000D01*
X35000000Y-105000000D02*
X35000000Y5000000D01*
X20000000Y-105000000D02*
X20000000Y5000000D01*
X-5000000Y-90000000D02*
X105000000Y-90000000D01*
X-5000000Y-80000000D02*
X105000000Y-80000000D01*
X-5000000Y-70000000D02*
X105000000Y-70000000D01*
X-5000000Y-60000000D02*
X105000000Y-60000000D01*
X-5000000Y-50000000D02*
X105000000Y-50000000D01*
X-5000000Y-40000000D02*
X105000000Y-40000000D01*
X-5000000Y-30000000D02*
X105000000Y-30000000D01*
X-5000000Y-20000000D02*
X105000000Y-20000000D01*
X-5000000Y-10000000D02*
X105000000Y-10000000D01*
X5000000Y-105000000D02*
X5000000Y5000000D01*
X0Y-100000000D02*
X0Y0D01*
X100000000Y-100000000D02*
X0Y-100000000D01*
X100000000Y0D02*
X100000000Y-100000000D01*
X0Y0D02*
X100000000Y0D01*
M02*
